<?xml version="1.0" encoding="UTF-8"?>
<svg version="1.1" xmlns="http://www.w3.org/2000/svg" width="1024" height="1024">
<path d="M0 0 C8.41059233 6.83165213 12.13725269 14.81203471 13.7890625 25.45703125 C13.70165109 26.98048728 13.57989116 28.50260677 13.4140625 30.01953125 C13.22900987 35.49319319 16.62515122 38.28895691 20.08203125 42.203125 C37.50495818 62.45863324 43.49467227 88.65097447 46.7890625 114.45703125 C53.0590625 115.11703125 59.3290625 115.77703125 65.7890625 116.45703125 C66.95617601 111.20502047 68.07177819 105.99954454 69.08081055 100.72363281 C72.51698421 83.25901014 78.9417358 69.2280213 88.7890625 54.45703125 C88.4590625 54.45703125 88.1290625 54.45703125 87.7890625 54.45703125 C86.93219284 50.06557426 86.53087483 45.93228417 86.7890625 41.45703125 C87.4490625 40.79703125 88.1090625 40.13703125 88.7890625 39.45703125 C90.51552159 36.86734261 91.66015757 34.53050947 92.9140625 31.70703125 C96.69921099 24.11459889 102.51535971 19.29923545 110.375 16.1796875 C119.62706602 13.41005609 127.29231199 14.44404551 135.9453125 18.45703125 C142.9520341 22.33767706 147.95666851 28.52528537 150.7265625 36.01953125 C153.18907996 44.86012188 151.64044878 52.78167587 147.5703125 60.8828125 C143.98161475 66.81413239 139.64929176 69.94089369 133.7890625 73.45703125 C132.72751953 74.25753906 132.72751953 74.25753906 131.64453125 75.07421875 C129.63121342 76.57467035 128.26867102 77.13708176 125.7890625 77.45703125 C124.7990625 77.12703125 123.8090625 76.79703125 122.7890625 76.45703125 C122.1290625 77.11703125 121.4690625 77.77703125 120.7890625 78.45703125 C118.1640625 78.58203125 118.1640625 78.58203125 115.7890625 78.45703125 C116.1190625 77.79703125 116.4490625 77.13703125 116.7890625 76.45703125 C114.41512761 76.14888519 114.41512761 76.14888519 111.7890625 76.45703125 C100.37541008 87.0750204 98.07017006 107.85240503 96.7890625 122.45703125 C98.5142895 123.13382783 100.24445189 123.79805125 101.9765625 124.45703125 C102.93949219 124.82828125 103.90242188 125.19953125 104.89453125 125.58203125 C107.71088608 126.43339897 109.87070689 126.62775772 112.7890625 126.45703125 C113.1190625 127.11703125 113.4490625 127.77703125 113.7890625 128.45703125 C115.47963716 129.37074367 115.47963716 129.37074367 117.53515625 130.1484375 C118.28990234 130.45330078 119.04464844 130.75816406 119.82226562 131.07226562 C120.61568359 131.38486328 121.40910156 131.69746094 122.2265625 132.01953125 C123.78794989 132.64536081 125.34915631 133.27164213 126.91015625 133.8984375 C127.6055249 134.17373291 128.30089355 134.44902832 129.01733398 134.73266602 C133.66698039 136.63365828 137.64678382 139.65438312 141.7890625 142.45703125 C142.81128906 143.14410156 143.83351563 143.83117187 144.88671875 144.5390625 C179.47693631 168.08019984 202.43422101 201.42321902 210.47265625 242.69140625 C217.01459188 278.56301994 213.56142474 314.88008893 201.2421875 349.15625 C200.28762221 351.82059659 199.70320714 354.02224572 199.2734375 356.8515625 C198.70667793 359.90018052 197.93585249 360.35002682 195.7890625 362.45703125 C194.62230192 364.28360154 194.62230192 364.28360154 193.58984375 366.30078125 C192.98922119 367.42033203 192.98922119 367.42033203 192.37646484 368.5625 C191.95574707 369.35269531 191.5350293 370.14289063 191.1015625 370.95703125 C187.14887761 378.2187729 182.91596129 384.95182159 177.7890625 391.45703125 C177.16644531 392.27042969 176.54382813 393.08382813 175.90234375 393.921875 C163.8267861 409.42659709 150.09395813 422.49251228 133.7890625 433.45703125 C132.80808594 434.12347656 131.82710937 434.78992188 130.81640625 435.4765625 C95.53050993 458.30314365 46.32586827 473.11247922 4.2265625 472.51953125 C3.37964844 472.51050781 2.53273438 472.50148438 1.66015625 472.4921875 C1.04269531 472.48058594 0.42523437 472.46898437 -0.2109375 472.45703125 C-0.5409375 473.11703125 -0.8709375 473.77703125 -1.2109375 474.45703125 C-9.86366738 474.59056882 -18.51643646 474.72107177 -27.16926289 474.84818268 C-31.19155867 474.90735572 -35.21383669 474.96739628 -39.23608398 475.02978516 C-58.03459705 475.32066963 -76.82721925 475.51636375 -95.62825012 475.46057129 C-152.52234645 475.30498401 -204.04858262 491.70647583 -256.05078125 513.28515625 C-257.10700684 513.71683105 -258.16323242 514.14850586 -259.25146484 514.59326172 C-261.20279023 515.39315063 -263.14775471 516.20882142 -265.08447266 517.04345703 C-271.36720814 519.61060895 -271.36720814 519.61060895 -275.6875 518.82421875 C-279.65358144 516.67541301 -281.67547285 514.22568723 -282.984375 509.90234375 C-283.30163891 505.07774431 -281.95960096 501.15617037 -280.5234375 496.58203125 C-279.95977264 494.71558699 -279.39860091 492.8483881 -278.83984375 490.98046875 C-278.56156738 490.05459961 -278.28329102 489.12873047 -277.99658203 488.17480469 C-276.48304176 482.93902772 -275.28615405 477.62771407 -274.0703125 472.31640625 C-273.64492188 470.90101563 -273.64492188 470.90101563 -273.2109375 469.45703125 C-272.5509375 469.12703125 -271.8909375 468.79703125 -271.2109375 468.45703125 C-270.63522804 466.54534727 -270.63522804 466.54534727 -270.29296875 464.203125 C-269.14142793 457.8870301 -267.53121237 451.72602428 -265.8984375 445.51953125 C-265.59301025 444.33818604 -265.28758301 443.15684082 -264.97290039 441.93969727 C-263.57373108 436.54603674 -262.14716815 431.16886831 -260.5703125 425.82421875 C-260.32837158 424.98238037 -260.08643066 424.14054199 -259.8371582 423.27319336 C-259.39618877 421.75019969 -258.93792624 420.23204212 -258.45776367 418.72094727 C-255.42195864 408.09749978 -260.69502647 397.731154 -264.3359375 387.83203125 C-264.80924902 386.52888364 -265.2819099 385.22549953 -265.75390625 383.921875 C-266.89989804 380.76455067 -268.05236395 377.60975565 -269.2109375 374.45703125 C-269.8709375 374.78703125 -270.5309375 375.11703125 -271.2109375 375.45703125 C-271.5409375 373.80703125 -271.8709375 372.15703125 -272.2109375 370.45703125 C-271.5509375 370.45703125 -270.8909375 370.45703125 -270.2109375 370.45703125 C-270.52546875 369.3896875 -270.84 368.32234375 -271.1640625 367.22265625 C-273.60102245 358.79893945 -275.77730297 350.36514379 -277.5234375 341.76953125 C-277.69456055 340.94549805 -277.86568359 340.12146484 -278.04199219 339.27246094 C-278.96533125 334.5751414 -279.38393328 330.24324773 -279.2109375 325.45703125 C-279.8709375 325.12703125 -280.5309375 324.79703125 -281.2109375 324.45703125 C-281.28637147 318.41457703 -281.34013057 312.37241027 -281.37573242 306.32958984 C-281.39060913 304.28364271 -281.41091681 302.23772621 -281.43725586 300.19189453 C-281.65758053 282.60912147 -280.55807538 265.49884804 -275.3984375 248.58203125 C-275.14562012 247.72198486 -274.89280273 246.86193848 -274.63232422 245.97583008 C-272.38117259 238.54342342 -269.53604743 231.47277738 -266.2109375 224.45703125 C-267.31161746 223.63981408 -268.41663481 222.82843674 -269.5234375 222.01953125 C-270.44576172 221.34083984 -270.44576172 221.34083984 -271.38671875 220.6484375 C-273.30770851 219.28366817 -273.30770851 219.28366817 -276.2109375 218.45703125 C-277.23113323 217.47764335 -278.23243555 216.47807676 -279.2109375 215.45703125 C-279.8709375 215.12703125 -280.5309375 214.79703125 -281.2109375 214.45703125 C-281.2109375 213.79703125 -281.2109375 213.13703125 -281.2109375 212.45703125 C-281.76394531 212.21082031 -282.31695312 211.96460938 -282.88671875 211.7109375 C-299.73298766 202.62244621 -313.76226006 184.35438613 -322.2109375 167.45703125 C-324.22763577 166.32352591 -324.22763577 166.32352591 -326.2109375 165.45703125 C-326.02015625 164.87179687 -325.829375 164.2865625 -325.6328125 163.68359375 C-325.04428603 160.57748185 -326.26354877 158.38053543 -327.30859375 155.4765625 C-333.74359074 133.94300113 -332.27049466 111.81597357 -321.8984375 91.76953125 C-318.79279928 86.22043781 -315.31346258 81.3020948 -311.2109375 76.45703125 C-310.70304687 75.80476563 -310.19515625 75.1525 -309.671875 74.48046875 C-296.4631866 58.14854369 -273.96606923 46.90026317 -253.2109375 44.45703125 C-239.62508791 43.80744167 -226.38503471 43.82225021 -213.2109375 47.45703125 C-212.20289063 47.70066406 -211.19484375 47.94429688 -210.15625 48.1953125 C-193.03126506 52.79247767 -177.24081891 61.79415853 -163.2109375 72.45703125 C-162.26476562 73.17246094 -161.31859375 73.88789063 -160.34375 74.625 C-154.63229169 79.14162801 -149.29274392 84.06647368 -143.9609375 89.01953125 C-142.96803711 89.93943848 -142.96803711 89.93943848 -141.95507812 90.87792969 C-134.34251235 98.04382034 -127.95020676 105.91332352 -121.7734375 114.33203125 C-121.13728516 115.18539062 -120.50113281 116.03875 -119.84570312 116.91796875 C-119.24564453 117.73265625 -118.64558594 118.54734375 -118.02734375 119.38671875 C-117.48537354 120.12132324 -116.94340332 120.85592773 -116.38500977 121.61279297 C-115.2109375 123.45703125 -115.2109375 123.45703125 -115.2109375 125.45703125 C-114.51983887 125.2962207 -113.82874023 125.13541016 -113.11669922 124.96972656 C-82.62725915 117.95640499 -51.88700399 113.96040809 -20.58984375 113.1875 C-19.76609253 113.16694046 -18.94234131 113.14638092 -18.09362793 113.12519836 C-14.00050568 113.02668751 -9.90785684 112.94442864 -5.81396484 112.88598633 C-4.31998611 112.85763028 -2.82600821 112.82923072 -1.33203125 112.80078125 C-0.64065567 112.79559982 0.05071991 112.7904184 0.76304626 112.78507996 C4.7184353 112.79562756 4.7184353 112.79562756 7.7890625 110.45703125 C11.4140625 110.83203125 11.4140625 110.83203125 14.7890625 111.45703125 C14.5725 110.26464844 14.3559375 109.07226562 14.1328125 107.84375 C13.85142654 106.27736817 13.57018401 104.71096057 13.2890625 103.14453125 C13.14597656 102.35884766 13.00289062 101.57316406 12.85546875 100.76367188 C12.72011719 100.00634766 12.58476563 99.24902344 12.4453125 98.46875 C12.31962891 97.77225342 12.19394531 97.07575684 12.06445312 96.3581543 C11.7890625 94.45703125 11.7890625 94.45703125 11.7890625 91.45703125 C10.4690625 91.12703125 9.1490625 90.79703125 7.7890625 90.45703125 C8.1190625 88.47703125 8.4490625 86.49703125 8.7890625 84.45703125 C8.1290625 84.78703125 7.4690625 85.11703125 6.7890625 85.45703125 C6.84191406 84.57660156 6.89476562 83.69617188 6.94921875 82.7890625 C6.52217107 73.90438754 -0.79106244 66.08423925 -6.2109375 59.45703125 C-7.21718964 58.12841001 -8.21910658 56.79645247 -9.2109375 55.45703125 C-10.10554688 55.62460937 -11.00015625 55.7921875 -11.921875 55.96484375 C-21.82024009 57.63215898 -29.32770044 58.14186691 -38.0234375 52.70703125 C-41.7631488 50.02448215 -44.38201719 47.05747528 -47.2109375 43.45703125 C-47.8709375 43.45703125 -48.5309375 43.45703125 -49.2109375 43.45703125 C-49.7271269 40.87608425 -50.23482153 38.30690309 -50.6484375 35.70703125 C-50.8340625 34.96453125 -51.0196875 34.22203125 -51.2109375 33.45703125 C-51.8709375 33.12703125 -52.5309375 32.79703125 -53.2109375 32.45703125 C-52.97011289 23.99204609 -52.49265012 16.86945847 -48.2109375 9.45703125 C-47.6334375 8.40515625 -47.0559375 7.35328125 -46.4609375 6.26953125 C-35.29836483 -7.68368458 -14.61679645 -10.20076784 0 0 Z M9.7890625 88.45703125 C10.7890625 90.45703125 10.7890625 90.45703125 10.7890625 90.45703125 Z M-324.2109375 163.45703125 C-323.2109375 165.45703125 -323.2109375 165.45703125 -323.2109375 165.45703125 Z " fill="#252523" transform="translate(577.2109375,241.54296875)"/>
<path d="M0 0 C1.2680246 -0.0080365 2.53604919 -0.016073 3.84249878 -0.02435303 C53.50202724 -0.26285175 106.03166149 6.64081182 144.75 40.375 C145.37519531 40.91511719 146.00039063 41.45523438 146.64453125 42.01171875 C167.45656959 61.361553 175.9416182 90.89287658 177.75 118.375 C177.85737811 122.60556591 177.84618652 126.83095439 177.8125 131.0625 C177.80798828 132.15755859 177.80347656 133.25261719 177.79882812 134.38085938 C177.78719156 137.04563309 177.77084564 139.71028517 177.75 142.375 C158.65207881 142.86449719 142.78081743 141.62901257 125.10498047 133.98046875 C119.4140412 131.61097454 115.79546719 130.94003196 109.75 132.375 C105.8103754 134.77303236 103.920639 136.90528746 102.75 141.375 C101.98527198 146.29110873 103.30233762 149.42267581 106.01171875 153.421875 C118.13946826 167.04855985 142.16045238 169.7161889 159.15625 170.71875 C164.01940295 170.97778759 168.88360899 171.18726106 173.75 171.375 C170.15732916 190.0524254 164.24606821 206.87403991 154.75 223.375 C113.26583798 224.14155517 67.43429738 198.87172236 32.75 178.375 C31.93805176 177.900625 31.12610352 177.42625 30.28955078 176.9375 C14.51998198 167.7033337 -0.32908428 157.22387191 -14.25 145.375 C-15.3798953 144.43061493 -16.51012383 143.48662845 -17.640625 142.54296875 C-28.94535811 133.04976333 -39.11927326 123.02344895 -48.25 111.375 C-49.04019531 110.40175781 -49.83039062 109.42851562 -50.64453125 108.42578125 C-68.52493762 85.9837594 -79.10372203 60.64761415 -88.5168457 33.79223633 C-88.80820404 32.9610881 -89.09956238 32.12993988 -89.39974976 31.27360535 C-89.9463528 29.70935252 -90.49026837 28.14415681 -91.03091431 26.57783508 C-92.21304578 23.18046032 -93.45101352 19.87195065 -94.93774414 16.59521484 C-96.25 13.375 -96.25 13.375 -96.25 9.375 C-64.01646534 3.41418215 -32.81620209 0.1161244 0 0 Z " fill="#FED232" transform="translate(579.25,386.625)"/>
<path d="M0 0 C7.06122573 5.37842504 13.60030062 11.30249424 20.01000977 17.43286133 C20.94844727 18.31844727 21.88688477 19.2040332 22.85375977 20.11645508 C29.66416475 26.70686103 35.50292279 33.75498558 41.01000977 41.43286133 C41.61063232 42.25898926 41.61063232 42.25898926 42.22338867 43.10180664 C57.71238095 64.59800776 77.01000977 98.04579425 77.01000977 125.43286133 C63.10951679 127.34109339 49.40584832 127.79536188 35.38500977 127.74536133 C34.32452423 127.74353851 33.2640387 127.7417157 32.17141724 127.73983765 C16.9040767 127.69562706 2.0437537 127.31373291 -12.98999023 124.43286133 C-13.91279785 124.27188965 -14.83560547 124.11091797 -15.78637695 123.94506836 C-50.71464906 117.79584947 -88.10309513 102.11672289 -109.55249023 72.68286133 C-119.15579618 58.54765819 -124.14895018 43.5380663 -121.52124023 26.37036133 C-118.1034194 10.7460375 -110.01860729 -0.59893072 -96.98999023 -9.56713867 C-65.36921536 -28.58599104 -28.60348336 -21.13839317 0 0 Z " fill="#FED232" transform="translate(394.989990234375,334.567138671875)"/>
<path d="M0 0 C0.78375 0.21914063 1.5675 0.43828125 2.375 0.6640625 C12.18613403 3.2648588 22.09218086 5.24956435 32.0625 7.125 C32.73547119 7.25287903 33.40844238 7.38075806 34.10180664 7.51251221 C36.0995469 7.89083533 38.09828324 8.26322091 40.09765625 8.6328125 C40.74851196 8.75451309 41.39936768 8.87621368 42.06994629 9.00160217 C45.42994107 9.61000368 48.76460788 10.10410483 52.1640625 10.43286133 C53.17792274 10.53792496 53.17792274 10.53792496 54.21226501 10.64511108 C56.07391668 10.82828366 57.93845154 10.981445 59.80297852 11.13256836 C66.13303941 12.85007171 68.73132779 18.71596149 72 24 C73.40416239 25.8179119 74.84170141 27.61056604 76.3125 29.375 C77.44365234 30.73625 77.44365234 30.73625 78.59765625 32.125 C79.39042969 33.07375 80.18320312 34.0225 81 35 C81.82371094 36.010625 82.64742188 37.02125 83.49609375 38.0625 C89.79717929 45.69597872 96.58510072 52.79443414 103.5625 59.8125 C104.42456055 60.68374512 105.28662109 61.55499023 106.17480469 62.45263672 C111.3775167 67.630724 116.76266466 72.4062223 122.5090332 76.97436523 C124.97470289 78.97942859 127.30472043 81.07940737 129.625 83.25 C136.0059871 89.05548668 142.90842947 94.16944846 149.80078125 99.34472656 C151.91601706 100.93678904 154.021685 102.54067321 156.125 104.1484375 C164.17835569 110.28344156 172.36622847 116.11993714 180.86669922 121.61914062 C182.36313272 122.58776363 183.85670968 123.56080725 185.34814453 124.53710938 C222.89395031 149.09334258 263.12577799 170.80628085 305 187 C305 187.66 305 188.32 305 189 C281.2026444 195.49128763 257.49067 200.61018536 233 203.8125 C232.06357666 203.93665283 231.12715332 204.06080566 230.16235352 204.1887207 C227.44322603 204.51883608 224.73014972 204.77966189 222 205 C221.03755371 205.08459473 220.07510742 205.16918945 219.08349609 205.25634766 C210.81945179 205.65884794 204.94774798 203.40437862 197.625 199.75 C196.49795654 199.20714355 195.37091309 198.66428711 194.2097168 198.10498047 C161.19697209 182.02464642 130.0412346 162.45616774 101 140 C100.39752441 139.5364209 99.79504883 139.0728418 99.17431641 138.59521484 C75.80844847 120.58415622 51.78785255 100.65569337 34 77 C33.48518066 76.33452148 32.97036133 75.66904297 32.43994141 74.98339844 C16.14539896 53.9093072 -0.9519244 27.82548254 0 0 Z " fill="#FED332" transform="translate(340,479)"/>
<path d="M0 0 C0.66 0 1.32 0 2 0 C3.12109375 1.51171875 3.12109375 1.51171875 4.4375 3.6875 C10.47384529 13.05119659 18.24593989 21.27753645 25.734375 29.48828125 C27.60894615 31.56646961 29.44142704 33.67036444 31.26953125 35.7890625 C34.99348018 40.05233166 38.92435853 44.07257825 42.9375 48.0625 C43.60201172 48.73087891 44.26652344 49.39925781 44.95117188 50.08789062 C49.46943154 54.59738548 54.15932126 58.84098436 59 63 C60.09461231 63.96125853 61.18840791 64.92344816 62.28125 65.88671875 C70.17593074 72.78285799 78.34964103 79.17919111 86.79931641 85.37890625 C89.17097291 87.1259441 91.52936322 88.88996909 93.88671875 90.65625 C95.54927553 91.89610644 97.21203253 93.13569446 98.875 94.375 C100.01521606 95.23134033 100.01521606 95.23134033 101.1784668 96.10498047 C106.58200179 100.10972596 112.17890519 103.63341862 118 107 C115.03387011 108.97741993 113.44659022 109.47811386 110.03125 110.15625 C109.00410889 110.36838135 107.97696777 110.5805127 106.91870117 110.79907227 C105.22644409 111.14603149 105.22644409 111.14603149 103.5 111.5 C70.08881349 118.68809102 36.53546947 128.78727888 5 142 C7.99692452 128.41150286 11.7647045 115.09679581 15.6875 101.75 C16.5792827 98.7063121 17.46976403 95.66225712 18.35786438 92.61749268 C18.90533411 90.74144648 19.45501259 88.86604296 20.00724792 86.99139404 C23.42628816 75.29860924 23.42111272 68.06519676 18.5625 56.75 C10.93599748 38.34275665 4.26797164 19.48940897 0 0 Z " fill="#FDD332" transform="translate(327,577)"/>
<path d="M0 0 C5.92526227 3.56265769 9.98087232 8.77689285 12.08984375 15.34375 C13.80098078 22.92366281 12.52446133 29.74962099 8.5625 36.4375 C3.97614033 41.62707608 -0.7018217 44.96828437 -7.671875 45.84375 C-14.79125954 46.03360025 -19.88241021 45.7736365 -25.59765625 41.29296875 C-31.04949835 35.7948265 -33.57326041 30.09507763 -33.8125 22.375 C-33.73823544 15.70604223 -32.47870386 10.79354531 -28.4375 5.4375 C-20.77659907 -1.8656935 -10.03377765 -4.55020149 0 0 Z " fill="#252321" transform="translate(658.4375,444.5625)"/>
<path d="M0 0 C0.66 0 1.32 0 2 0 C12.93939793 21.65811636 17.25558184 43.43345073 17.0625 67.6875 C17.05798828 68.78255859 17.05347656 69.87761719 17.04882812 71.00585938 C17.03719156 73.67063309 17.02084564 76.33528517 17 79 C13.22923111 79.05799124 9.45857666 79.09359306 5.6875 79.125 C4.61564453 79.14175781 3.54378906 79.15851563 2.43945312 79.17578125 C1.41142578 79.18222656 0.38339844 79.18867187 -0.67578125 79.1953125 C-1.62364502 79.20578613 -2.57150879 79.21625977 -3.5480957 79.22705078 C-6 79 -6 79 -9 77 C-1.08 77 6.84 77 15 77 C14.48040635 51.80866626 13.47115789 26.80990374 1.13671875 4.22265625 C0 2 0 2 0 0 Z " fill="#F1E63F" transform="translate(740,450)"/>
<path d="M0 0 C0.66 0 1.32 0 2 0 C3.12109375 1.51171875 3.12109375 1.51171875 4.4375 3.6875 C10.47384529 13.05119659 18.24593989 21.27753645 25.734375 29.48828125 C27.01171438 30.90436612 28.28173326 32.32740389 29.52563477 33.77294922 C33.95017325 38.9108381 38.61550263 43.73535484 43.4375 48.5 C44.16904297 49.22703125 44.90058594 49.9540625 45.65429688 50.703125 C47.43389824 52.47109499 49.21580918 54.23666378 51 56 C48 56 48 56 45.69091797 54.06323242 C44.80033691 53.16967041 43.90975586 52.2761084 42.9921875 51.35546875 C42.26480881 50.62883781 42.26480881 50.62883781 41.5227356 49.88752747 C40.49201937 48.85446668 39.46500497 47.81770144 38.44140625 46.77758789 C36.9101591 45.22319065 35.36651735 43.68207977 33.8203125 42.14257812 C28.19704615 36.50246869 22.94117175 30.71383472 17.98461914 24.46606445 C15.32105298 21.1563484 12.48728205 18.01632613 9.62890625 14.875 C8 13 8 13 6 10 C6.15597656 10.67546875 6.31195313 11.3509375 6.47265625 12.046875 C6.66730469 12.93890625 6.86195313 13.8309375 7.0625 14.75 C7.25972656 15.63171875 7.45695312 16.5134375 7.66015625 17.421875 C7.99825872 19.98679028 7.81158635 21.57091639 7 24 C6.2053846 21.50090425 5.41425597 19.00078857 4.625 16.5 C4.40328125 15.80390625 4.1815625 15.1078125 3.953125 14.390625 C2.45411033 9.629049 1.16958593 4.85323508 0 0 Z " fill="#F6ED41" transform="translate(327,577)"/>
<path d="M0 0 C0.66 0.33 1.32 0.66 2 1 C1.401875 1.680625 0.80375 2.36125 0.1875 3.0625 C-2.23587643 6.31674834 -3.5252401 9.23936225 -5 13 C-5.66 13 -6.32 13 -7 13 C-7.06058594 14.00160156 -7.12117187 15.00320313 -7.18359375 16.03515625 C-7.26808405 17.37761331 -7.35272768 18.72006072 -7.4375 20.0625 C-7.51871094 21.37347656 -7.59992187 22.68445313 -7.68359375 24.03515625 C-8.51417689 34.44308083 -8.51417689 34.44308083 -11.5625 37.9375 C-12.7690625 38.9584375 -12.7690625 38.9584375 -14 40 C-13.7525 38.824375 -13.7525 38.824375 -13.5 37.625 C-12.9587506 34.78344065 -12.97027479 33.15977302 -13.5 30.3125 C-14.03092652 26.79511181 -14.20489945 23.5515905 -14 20 C-13.34 19.34 -12.68 18.68 -12 18 C-10.26335138 15.39502708 -9.00497041 12.94876394 -7.6875 10.125 C-5.61097448 5.89778734 -3.56115509 3.05241865 0 0 Z " fill="#201F1E" transform="translate(678,263)"/>
<path d="M0 0 C2.475 0.495 2.475 0.495 5 1 C5.67608269 3.85222385 6.34105115 6.70631293 7 9.5625 C7.19078125 10.36236328 7.3815625 11.16222656 7.578125 11.98632812 C7.75859375 12.77587891 7.9390625 13.56542969 8.125 14.37890625 C8.37636719 15.45507202 8.37636719 15.45507202 8.6328125 16.55297852 C9.10045761 19.66947252 9 22.84861509 9 26 C-6.84 26 -22.68 26 -39 26 C-39 25.67 -39 25.34 -39 25 C-37.91992676 24.98018066 -36.83985352 24.96036133 -35.72705078 24.93994141 C-31.72746087 24.86398377 -27.72823948 24.77525184 -23.72900391 24.68261719 C-21.99665593 24.64428659 -20.26422726 24.60944094 -18.53173828 24.578125 C-16.04430251 24.53256235 -13.55742434 24.47455497 -11.0703125 24.4140625 C-10.29317902 24.40251129 -9.51604553 24.39096008 -8.71536255 24.37905884 C-4.39349025 24.41206232 -4.39349025 24.41206232 -1 22 C2.625 22.375 2.625 22.375 6 23 C5.7834375 21.80761719 5.566875 20.61523438 5.34375 19.38671875 C5.06236404 17.82033692 4.78112151 16.25392932 4.5 14.6875 C4.35691406 13.90181641 4.21382812 13.11613281 4.06640625 12.30664062 C3.86337891 11.1706543 3.86337891 11.1706543 3.65625 10.01171875 C3.53056641 9.31522217 3.40488281 8.61872559 3.27539062 7.90112305 C3 6 3 6 3 3 C1.68 2.67 0.36 2.34 -1 2 C-0.67 1.34 -0.34 0.68 0 0 Z " fill="#3F3E3B" transform="translate(586,330)"/>
<path d="M0 0 C1.23736542 3.71209627 0.61339582 5.26052177 -0.40625 9.01171875 C-0.73496094 10.2339917 -1.06367188 11.45626465 -1.40234375 12.71557617 C-1.76797748 14.03962031 -2.13386833 15.36359347 -2.5 16.6875 C-2.8664116 18.03672245 -3.23229277 19.38608905 -3.59765625 20.7355957 C-6.23713579 30.43659347 -9.01180814 40.09817009 -11.91601562 49.72338867 C-12.32883789 51.10361206 -12.32883789 51.10361206 -12.75 52.51171875 C-12.99234375 53.31053467 -13.2346875 54.10935059 -13.484375 54.93237305 C-14.12098474 57.1299835 -14.12098474 57.1299835 -14 60 C-13.16855469 59.65775391 -13.16855469 59.65775391 -12.3203125 59.30859375 C-11.59585937 59.02113281 -10.87140625 58.73367188 -10.125 58.4375 C-9.40570313 58.14746094 -8.68640625 57.85742188 -7.9453125 57.55859375 C-6 57 -6 57 -4 58 C-8.29 59.98 -12.58 61.96 -17 64 C-18.46518695 61.06962609 -17.46007577 59.41970446 -16.56884766 56.296875 C-16.23164703 55.10223633 -15.89444641 53.90759766 -15.54702759 52.67675781 C-15.16958467 51.36777736 -14.79192437 50.05885957 -14.4140625 48.75 C-14.03331009 47.41259835 -13.65313977 46.07503085 -13.27352905 44.73730469 C-12.47579181 41.93167115 -11.67336207 39.12743936 -10.8671875 36.32421875 C-9.83295497 32.72784316 -8.80671749 29.12925244 -7.78351784 25.52972412 C-6.80891739 22.1023726 -5.83041879 18.67613801 -4.8515625 15.25 C-4.66447346 14.59398804 -4.47738441 13.93797607 -4.28462601 13.26208496 C-3.75521164 11.4084837 -3.22265203 9.55578163 -2.68994141 7.703125 C-2.38714264 6.64770508 -2.08434387 5.59228516 -1.77236938 4.50488281 C-1 2 -1 2 0 0 Z " fill="#F3E93F" transform="translate(350,655)"/>
<path d="M0 0 C0.66 0 1.32 0 2 0 C27 45.15348451 27 45.15348451 27 67 C23.7 67 20.4 67 17 67 C17 66.67 17 66.34 17 66 C20.465 65.505 20.465 65.505 24 65 C19.65814436 43.4735368 12.41696101 23.05943518 1.6171875 3.90234375 C0 1 0 1 0 0 Z " fill="#F5ED43" transform="translate(445,393)"/>
<path d="M0 0 C1.42633336 2.85266672 0.46428726 4.28650275 -0.4375 7.3125 C-4.39233995 22.69243315 -1.05089594 37.30567181 6.2734375 51.203125 C8.66759589 55.08144493 11.45946248 58.51837575 14.4609375 61.94140625 C16 64 16 64 16 67 C5.39610294 57.36009358 -2.71692403 42.74189084 -4.28710938 28.37255859 C-4.39950442 25.72092285 -4.41009548 23.09110797 -4.375 20.4375 C-4.38660156 19.55642578 -4.39820313 18.67535156 -4.41015625 17.76757812 C-4.38566089 12.23570878 -4.19241814 4.19241814 0 0 Z " fill="#0D0A15" transform="translate(276,350)"/>
<path d="M0 0 C3.63268898 3.5412184 6.99388629 7.23285242 10.25 11.125 C10.89001953 11.88296875 10.89001953 11.88296875 11.54296875 12.65625 C13.70921919 15.23063458 15.85328958 17.81457766 17.94116211 20.45336914 C23.86084846 27.878185 30.3048091 34.54213703 37.0625 41.1875 C38.13003108 42.24496463 39.19709092 43.3029052 40.26367188 44.36132812 C42.83706456 46.91303585 45.41668368 49.45833457 48 52 C44.37193537 52 43.57138038 50.92963037 41.07931519 48.47050476 C40.57618805 47.95816788 40.07306091 47.44583099 39.5546875 46.91796875 C38.76072067 46.12474968 38.76072067 46.12474968 37.95071411 45.31550598 C36.82584198 44.18828903 35.70467241 43.05736712 34.58691406 41.9230957 C32.91084032 40.22383611 31.22229458 38.53786153 29.53125 36.85351562 C22.91661154 30.22164565 16.79244446 23.37359758 11 16 C9.90586077 14.64379428 8.81090465 13.28824688 7.71484375 11.93359375 C6.78805232 10.76903238 5.86223209 9.60369728 4.9375 8.4375 C4.45345703 7.83615234 3.96941406 7.23480469 3.47070312 6.61523438 C0 2.23144669 0 2.23144669 0 0 Z " fill="#F9F443" transform="translate(406,497)"/>
<path d="M0 0 C10.23 0.33 20.46 0.66 31 1 C26.85421412 20.8405467 26.85421412 20.8405467 23 29 C21.01361678 23.04085033 24.00059948 16.53740645 26.31640625 10.921875 C27.12574023 8.64649033 27.54481129 6.36902271 28 4 C27.29391602 3.9498877 26.58783203 3.89977539 25.86035156 3.84814453 C22.6561996 3.61581454 19.4531647 3.37055153 16.25 3.125 C14.58324219 3.00705078 14.58324219 3.00705078 12.8828125 2.88671875 C11.81289063 2.80292969 10.74296875 2.71914063 9.640625 2.6328125 C8.65610352 2.55949707 7.67158203 2.48618164 6.65722656 2.41064453 C4 2 4 2 0 0 Z " fill="#F9F147" transform="translate(722,557)"/>
<path d="M0 0 C2.70360135 1.26236484 4.91908439 2.61312071 7.1875 4.546875 C7.79424561 5.05549072 8.40099121 5.56410645 9.02612305 6.08813477 C9.67750244 6.63655029 10.32888184 7.18496582 11 7.75 C18.91503757 14.31253262 27.22744788 20.18761841 35.69921875 26.00390625 C38.90986839 28.21360083 42.00285802 30.50339905 45 33 C40.83823203 32.38344178 37.71481548 30.06065393 34.3125 27.75 C33.6632959 27.31252441 33.0140918 26.87504883 32.34521484 26.42431641 C21.16313951 18.79134611 9.53621213 10.67205561 0 1 C0 0.67 0 0.34 0 0 Z " fill="#100C15" transform="translate(557,526)"/>
<path d="M0 0 C4.68364695 1.45983801 7.8136111 4.19354483 11.3125 7.5 C12.16690674 8.29869507 12.16690674 8.29869507 13.03857422 9.11352539 C19.2032259 14.98208513 25.02459117 21.41633794 29 29 C28.67 29.66 28.34 30.32 28 31 C27.443125 30.23816406 26.88625 29.47632813 26.3125 28.69140625 C19.0566677 18.87397099 11.80776076 10.32781277 2.125 2.75 C1.42375 2.1725 0.7225 1.595 0 1 C0 0.67 0 0.34 0 0 Z " fill="#F5EC42" transform="translate(711,418)"/>
<path d="M0 0 C3 2 3 2 3.6875 3.625 C4.56032667 10.2584827 3.81917773 15.63287795 2 22 C1.34 21.67 0.68 21.34 0 21 C-0.66 21.66 -1.32 22.32 -2 23 C-1.855625 22.26136719 -1.71125 21.52273438 -1.5625 20.76171875 C-0.28019903 13.75358778 0.25222242 7.11827723 0 0 Z " fill="#2C2C2B" transform="translate(725,276)"/>
<path d="M0 0 C0.33 0 0.66 0 1 0 C0.85936865 2.29199177 0.71234057 4.58359186 0.5625 6.875 C0.48128906 8.15117187 0.40007813 9.42734375 0.31640625 10.7421875 C0 14 0 14 -1 16 C-6.61 15.34 -12.22 14.68 -18 14 C-18 13.67 -18 13.34 -18 13 C-12.55306686 12.90311779 -7.36095333 12.87137825 -2 14 C-2 13.34 -2 12.68 -2 12 C-2.66 11.67 -3.32 11.34 -4 11 C-3.67 10.67 -3.34 10.34 -3 10 C-2.855625 8.88625 -2.71125 7.7725 -2.5625 6.625 C-2 3 -2 3 0 0 Z " fill="#191918" transform="translate(647,346)"/>
<path d="M0 0 C0.66 0 1.32 0 2 0 C-2 19.53191489 -2 19.53191489 -6 28 C-7.99156338 22.02530986 -4.97028603 15.64680028 -2.73046875 9.99609375 C-1.5347125 6.72854591 -0.78623996 3.38687983 0 0 Z " fill="#F7EE44" transform="translate(751,558)"/>
<path d="M0 0 C-0.969375 0.12375 -1.93875 0.2475 -2.9375 0.375 C-4.4534375 0.684375 -4.4534375 0.684375 -6 1 C-6.33 1.66 -6.66 2.32 -7 3 C-7.66 3 -8.32 3 -9 3 C-9 3.66 -9 4.32 -9 5 C-11.64 5.33 -14.28 5.66 -17 6 C-17 6.33 -17 6.66 -17 7 C-18.98 7 -20.96 7 -23 7 C-19.55595448 4.01281766 -15.76659144 2.65010476 -11.5 1.25 C-10.83613281 1.01667969 -10.17226563 0.78335937 -9.48828125 0.54296875 C-6.01895933 -0.61347189 -3.46925407 -1.45142262 0 0 Z " fill="#363634" transform="translate(318,289)"/>
<path d="M0 0 C0.66 1.32 1.32 2.64 2 4 C1.5875 4.350625 1.175 4.70125 0.75 5.0625 C-1.70762407 7.78344094 -3.24051885 10.78439652 -5 14 C-5.33 14 -5.66 14 -6 14 C-6 11.03 -6 8.06 -6 5 C-5.34 5 -4.68 5 -4 5 C-4 4.34 -4 3.68 -4 3 C-3.34 3 -2.68 3 -2 3 C-1.67 2.34 -1.34 1.68 -1 1 C-0.67 0.67 -0.34 0.34 0 0 Z " fill="#292927" transform="translate(774,597)"/>
<path d="M0 0 C-2.69067269 1.79378179 -5.08578257 2.97313958 -8.0625 4.1875 C-8.94035156 4.55230469 -9.81820313 4.91710937 -10.72265625 5.29296875 C-13 6 -13 6 -15 5 C-14 2 -14 2 -10.875 0.25 C-7.03417025 -1.28474149 -4.03368363 -0.90552081 0 0 Z " fill="#2D2D2C" transform="translate(341,746)"/>
<path d="M0 0 C3.78239671 0.65690619 7.21841526 1.720131 10.8125 3.0625 C11.78832031 3.42472656 12.76414062 3.78695312 13.76953125 4.16015625 C14.50558594 4.43730469 15.24164062 4.71445312 16 5 C16 5.66 16 6.32 16 7 C13.25 7.6875 13.25 7.6875 10 8 C7.625 6.5625 7.625 6.5625 6 5 C6.33 4.67 6.66 4.34 7 4 C4.69 3.01 2.38 2.02 0 1 C0 0.67 0 0.34 0 0 Z " fill="#F4E641" transform="translate(629,661)"/>
<path d="M0 0 C3 1 3 1 6 3 C0.72 4.32 -4.56 5.64 -10 7 C-9.67 6.01 -9.34 5.02 -9 4 C-7.02253397 3.26919734 -5.01927511 2.60578253 -3 2 C-2.01 1.34 -1.02 0.68 0 0 Z " fill="#2E2D2D" transform="translate(390,725)"/>
<path d="M0 0 C6.91663627 1.09890483 13.42736799 2.56569185 20 5 C16.42887901 6.19037366 14.27523456 5.83927846 10.5625 5.3125 C9.42941406 5.16425781 8.29632812 5.01601563 7.12890625 4.86328125 C3.64844177 3.90300329 2.27457438 2.7440197 0 0 Z " fill="#131117" transform="translate(700,604)"/>
<path d="M0 0 C5.94 0 11.88 0 18 0 C18 0.66 18 1.32 18 2 C14.30691024 3.23102992 11.11949288 2.87175152 7.3125 2.5625 C6.2596582 2.48418945 6.2596582 2.48418945 5.18554688 2.40429688 C3.45661946 2.27492135 1.72824645 2.13817469 0 2 C0 1.34 0 0.68 0 0 Z " fill="#090908" transform="translate(489,714)"/>
<path d="M0 0 C0.99 0.33 1.98 0.66 3 1 C3 3.64 3 6.28 3 9 C3.33 9 3.66 9 4 9 C4.76173392 13.3164922 5.16063604 16.74433453 4 21 C3.67 21 3.34 21 3 21 C2.49265716 18.6263603 1.99397614 16.25142575 1.5 13.875 C1.35691406 13.20984375 1.21382813 12.5446875 1.06640625 11.859375 C0.2387717 7.83943578 -0.15330658 4.10095101 0 0 Z " fill="#3A3937" transform="translate(298,568)"/>
<path d="M0 0 C0 0.33 0 0.66 0 1 C-2.74837849 1.53107314 -5.49812375 2.05015881 -8.25 2.5625 C-9.02730469 2.71396484 -9.80460937 2.86542969 -10.60546875 3.02148438 C-11.35957031 3.16005859 -12.11367188 3.29863281 -12.890625 3.44140625 C-13.58188477 3.57232666 -14.27314453 3.70324707 -14.98535156 3.83813477 C-17.21287942 4.01710362 -18.87506962 3.65206197 -21 3 C-20.01 3 -19.02 3 -18 3 C-18 2.34 -18 1.68 -18 1 C-11.60985973 -0.58444052 -6.49551291 -1.20287276 0 0 Z " fill="#3A3A38" transform="translate(432,719)"/>
<path d="M0 0 C2.4294516 3.6441774 2.16179575 5.71241272 2 10 C1.34 10 0.68 10 0 10 C-0.33 10.99 -0.66 11.98 -1 13 C-1.99 13.495 -1.99 13.495 -3 14 C-2.69024532 12.22868439 -2.37709575 10.45796222 -2.0625 8.6875 C-1.88847656 7.70136719 -1.71445312 6.71523438 -1.53515625 5.69921875 C-1 3 -1 3 0 0 Z " fill="#31312F" transform="translate(316,670)"/>
<path d="M0 0 C0 0.99 0 1.98 0 3 C-1.32 3 -2.64 3 -4 3 C-4.0825 3.5775 -4.165 4.155 -4.25 4.75 C-5.20710491 7.62131472 -6.8743794 8.8743794 -9 11 C-10.25436187 13.63222962 -10.25436187 13.63222962 -11 16 C-11.66796875 14.28515625 -11.66796875 14.28515625 -12 12 C-10.92578125 9.74609375 -10.92578125 9.74609375 -9.3125 7.4375 C-8.79300781 6.67308594 -8.27351562 5.90867187 -7.73828125 5.12109375 C-3.54143646 0 -3.54143646 0 0 0 Z " fill="#161316" transform="translate(638,445)"/>
<path d="M0 0 C0.33 0 0.66 0 1 0 C1 2.31 1 4.62 1 7 C4.63 8.32 8.26 9.64 12 11 C7.91113345 12.36295552 5.25441935 11.67530466 1 11 C0.34 10.67 -0.32 10.34 -1 10 C-0.67 6.7 -0.34 3.4 0 0 Z " fill="#3D3C3A" transform="translate(673,357)"/>
<path d="M0 0 C-2.12576705 1.86751623 -3.43745442 2.93888764 -6.29003906 3.2487793 C-7.5154541 3.16237183 -7.5154541 3.16237183 -8.765625 3.07421875 C-9.65507813 3.01943359 -10.54453125 2.96464844 -11.4609375 2.90820312 C-12.38132812 2.83537109 -13.30171875 2.76253906 -14.25 2.6875 C-15.18585937 2.62626953 -16.12171875 2.56503906 -17.0859375 2.50195312 C-19.3920088 2.34899942 -21.69600533 2.1812095 -24 2 C-24 1.67 -24 1.34 -24 1 C-15.97667603 0.09958689 -8.07029553 -0.11547323 0 0 Z " fill="#4A4947" transform="translate(544,356)"/>
<path d="M0 0 C5.61 0 11.22 0 17 0 C17 0.99 17 1.98 17 3 C16.05125 2.79375 15.1025 2.5875 14.125 2.375 C13.09375 2.25125 12.0625 2.1275 11 2 C10.34 2.66 9.68 3.32 9 4 C6.375 4.125 6.375 4.125 4 4 C4.33 3.34 4.66 2.68 5 2 C3.35 1.67 1.7 1.34 0 1 C0 0.67 0 0.34 0 0 Z " fill="#4B4A48" transform="translate(689,316)"/>
<path d="M0 0 C0.99 0 1.98 0 3 0 C3 5.28 3 10.56 3 16 C2.01 15.67 1.02 15.34 0 15 C-2.10526316 4.21052632 -2.10526316 4.21052632 0 0 Z " fill="#504F4C" transform="translate(665,281)"/>
<path d="M0 0 C0 0.99 0 1.98 0 3 C-4.85885135 7.5812027 -9.17944268 9.28483271 -15.8125 9.125 C-17.27623047 9.09792969 -17.27623047 9.09792969 -18.76953125 9.0703125 C-19.50558594 9.04710937 -20.24164062 9.02390625 -21 9 C-21 8.67 -21 8.34 -21 8 C-20.07316406 7.87882812 -19.14632812 7.75765625 -18.19140625 7.6328125 C-16.99386719 7.46523438 -15.79632812 7.29765625 -14.5625 7.125 C-12.77005859 6.88136719 -12.77005859 6.88136719 -10.94140625 6.6328125 C-9.97074219 6.42398437 -9.00007812 6.21515625 -8 6 C-7.67 5.34 -7.34 4.68 -7 4 C-5.33927151 3.31867549 -3.672233 2.65257873 -2 2 C-1.34 1.34 -0.68 0.68 0 0 Z " fill="#090813" transform="translate(664,481)"/>
<path d="M0 0 C0.66 0.33 1.32 0.66 2 1 C0.55609075 4.80666984 -1.34952803 6.26602582 -5 8 C-5.66 7.67 -6.32 7.34 -7 7 C-7 6.01 -7 5.02 -7 4 C-1.7265625 0.77734375 -1.7265625 0.77734375 0 0 Z " fill="#2E2E2C" transform="translate(293,296)"/>
<path d="M0 0 C0.33 0 0.66 0 1 0 C1.74926071 3.66305234 2.2380014 6.42355152 1 10 C1.99 9.67 2.98 9.34 4 9 C4.99 10.65 5.98 12.3 7 14 C3 14 3 14 1.3125 12.875 C-1.06112607 9.48410562 -1.17225268 6.13194619 -0.5625 2.125 C-0.376875 1.42375 -0.19125 0.7225 0 0 Z " fill="#393837" transform="translate(295,743)"/>
<path d="M0 0 C2.04355211 3.06532816 2.38658825 4.38354689 2.75 7.9375 C2.84796875 8.79214844 2.9459375 9.64679687 3.046875 10.52734375 C2.99549449 13.23766556 2.38633814 14.70187794 1 17 C0.34 16.34 -0.32 15.68 -1 15 C-0.98252112 12.40730017 -0.86231408 9.9474846 -0.625 7.375 C-0.56828125 6.66859375 -0.5115625 5.9621875 -0.453125 5.234375 C-0.31159079 3.48878639 -0.15702613 1.74426327 0 0 Z " fill="#3B3B39" transform="translate(320,647)"/>
<path d="M0 0 C0 0.66 0 1.32 0 2 C-6.75 6 -6.75 6 -9 6 C-9.66 7.32 -10.32 8.64 -11 10 C-11.33 9.01 -11.66 8.02 -12 7 C-8.5063473 3.20689136 -5.42241937 0 0 0 Z " fill="#1D1D1C" transform="translate(544,240)"/>
<path d="M0 0 C2.27477677 3.53854164 1.99082706 5.70947373 1.125 9.75 C0.92132813 10.73484375 0.71765625 11.7196875 0.5078125 12.734375 C0.34023438 13.48203125 0.17265625 14.2296875 0 15 C-0.66 15 -1.32 15 -2 15 C-2.3690205 4.44191344 -2.3690205 4.44191344 0 0 Z " fill="#151515" transform="translate(298,738)"/>
<path d="M0 0 C0.33 0 0.66 0 1 0 C1 4.29 1 8.58 1 13 C0.01 12.67 -0.98 12.34 -2 12 C-2.33 12.99 -2.66 13.98 -3 15 C-2.44854729 9.76119922 -1.57077907 5.02649303 0 0 Z " fill="#313130" transform="translate(311,689)"/>
<path d="M0 0 C2.15059309 3.53186832 2.3797728 6.66287993 2.625 10.75 C2.69976563 11.92046875 2.77453125 13.0909375 2.8515625 14.296875 C2.90054688 15.18890625 2.94953125 16.0809375 3 17 C-0.2571802 13.06861853 -0.8710605 10.00880346 -1 5 C-0.5625 2 -0.5625 2 0 0 Z " fill="#383635" transform="translate(619,332)"/>
<path d="M0 0 C0 3.47684256 -0.66401429 5.7936343 -2 9 C-4.125 10.875 -4.125 10.875 -6 12 C-5.49135273 7.62563349 -4.57073772 4.59903281 -2 1 C-1.34 0.67 -0.68 0.34 0 0 Z " fill="#1E1E1D" transform="translate(260,328)"/>
<path d="M0 0 C2.02408755 0.09002398 4.04544287 0.24641038 6.0625 0.4375 C7.71958984 0.59025391 7.71958984 0.59025391 9.41015625 0.74609375 C10.26480469 0.82988281 11.11945312 0.91367187 12 1 C8.40537669 3.25998595 5.43404325 3.20868087 1.25 3.125 C0.07953125 3.10695313 -1.0909375 3.08890625 -2.296875 3.0703125 C-3.63492188 3.03550781 -3.63492188 3.03550781 -5 3 C-4.360625 2.690625 -3.72125 2.38125 -3.0625 2.0625 C-1.06389179 1.1654837 -1.06389179 1.1654837 0 0 Z " fill="#10100F" transform="translate(590,709)"/>
<path d="M0 0 C3.82792868 1.5595265 6.36359864 3.83631836 9 7 C8.63671875 9.1640625 8.63671875 9.1640625 8 11 C6.66072279 9.54712339 5.32873153 8.08752741 4 6.625 C3.2575 5.81289063 2.515 5.00078125 1.75 4.1640625 C0 2 0 2 0 0 Z " fill="#1F1F1D" transform="translate(439,339)"/>
<path d="M0 0 C3 1 3 1 5 3 C3.73160474 3.50615298 2.46016898 4.00469099 1.1875 4.5 C0.12595703 4.91765625 0.12595703 4.91765625 -0.95703125 5.34375 C-3 6 -3 6 -6 6 C-6 5.34 -6 4.68 -6 4 C-3.1875 1.8125 -3.1875 1.8125 0 0 Z " fill="#2D2D2B" transform="translate(374,730)"/>
<path d="M0 0 C3.31658613 4.9748792 4.38479461 11.03568353 4 17 C3.67 16.01 3.34 15.02 3 14 C2.34 14 1.68 14 1 14 C0.83081732 12.41693353 0.66476064 10.83353281 0.5 9.25 C0.4071875 8.36828125 0.314375 7.4865625 0.21875 6.578125 C0 4 0 4 0 0 Z " fill="#3E3D3C" transform="translate(783,469)"/>
<path d="M0 0 C1.48224217 3.95264578 1.10022556 7.99320842 0 12 C-2.0625 14.5 -2.0625 14.5 -4 16 C-2.84941444 10.60204011 -1.57578241 5.29012667 0 0 Z " fill="#3A3938" transform="translate(303,717)"/>
<path d="M0 0 C0.99 0.33 1.98 0.66 3 1 C3 1.66 3 2.32 3 3 C1.73581754 3.69965443 0.46334598 4.38434763 -0.8125 5.0625 C-1.52019531 5.44535156 -2.22789062 5.82820312 -2.95703125 6.22265625 C-5 7 -5 7 -8 6 C-7.34 6 -6.68 6 -6 6 C-5.67 5.01 -5.34 4.02 -5 3 C-2.4375 1.8125 -2.4375 1.8125 0 1 C0 0.67 0 0.34 0 0 Z " fill="#2F2F2E" transform="translate(685,685)"/>
<path d="M0 0 C0.80824219 0.10183594 1.61648438 0.20367187 2.44921875 0.30859375 C3.06410156 0.39238281 3.67898438 0.47617187 4.3125 0.5625 C0.8358662 2.70586161 -1.89979195 2.77527626 -5.9375 2.6875 C-7.01515625 2.66945313 -8.0928125 2.65140625 -9.203125 2.6328125 C-10.02296875 2.60960937 -10.8428125 2.58640625 -11.6875 2.5625 C-7.53803108 0.41622297 -4.67828352 -0.61021089 0 0 Z " fill="#31302F" transform="translate(355.6875,287.4375)"/>
<path d="M0 0 C-0.639375 0.28875 -1.27875 0.5775 -1.9375 0.875 C-4.15206079 1.82823451 -4.15206079 1.82823451 -5 4 C-7.4375 5.6875 -7.4375 5.6875 -10 7 C-10.66 6.67 -11.32 6.34 -12 6 C-6 -0.15789474 -6 -0.15789474 0 0 Z " fill="#1B1A1A" transform="translate(690,259)"/>
<path d="M0 0 C0.8971875 0.4640625 0.8971875 0.4640625 1.8125 0.9375 C-2.1688783 2.2646261 -6.03795227 2.00665913 -10.1875 1.9375 C-7.00492025 -2.83636963 -4.81242814 -2.3374651 0 0 Z " fill="#2F2F2E" transform="translate(409.1875,723.0625)"/>
<path d="M0 0 C1.25127906 3.54667178 0.72285053 5.72253438 -0.4375 9.25 C-0.72496094 10.14203125 -1.01242187 11.0340625 -1.30859375 11.953125 C-1.53675781 12.62859375 -1.76492188 13.3040625 -2 14 C-2.33 14 -2.66 14 -3 14 C-3.14285714 6.57142857 -3.14285714 6.57142857 -2 3 C-1.34 3 -0.68 3 0 3 C0 2.01 0 1.02 0 0 Z " fill="#1C1C1A" transform="translate(320,659)"/>
<path d="M0 0 C1.90389849 2.85584773 2.69462177 4.9311762 3.625 8.1875 C4.01558594 9.53908203 4.01558594 9.53908203 4.4140625 10.91796875 C4.60742188 11.60503906 4.80078125 12.29210937 5 13 C2 12 2 12 0.8125 9.875 C-0.14531259 6.48581699 -0.13746202 3.50528139 0 0 Z " fill="#1F1F1D" transform="translate(312,621)"/>
<path d="M0 0 C3.9252025 3.70090521 6.94580156 7.54959656 10 12 C9.01 12 8.02 12 7 12 C5.17578125 10.13671875 5.17578125 10.13671875 3.3125 7.6875 C2.68988281 6.88699219 2.06726563 6.08648437 1.42578125 5.26171875 C0 3 0 3 0 0 Z " fill="#1D1819" transform="translate(283,404)"/>
<path d="M0 0 C3.37503669 1.1858237 5.64722731 2.27573689 8 5 C7.67 5.66 7.34 6.32 7 7 C4.625 6.3125 4.625 6.3125 2 5 C0.6875 2.375 0.6875 2.375 0 0 Z " fill="#2F2E2C" transform="translate(399,305)"/>
<path d="M0 0 C0.66 0.33 1.32 0.66 2 1 C1.55149342 2.81495662 1.09090429 4.62693134 0.625 6.4375 C0.24214844 7.95150391 0.24214844 7.95150391 -0.1484375 9.49609375 C-1 12 -1 12 -3 13 C-2.69240822 11.02006459 -2.3787932 9.04106401 -2.0625 7.0625 C-1.88847656 5.96035156 -1.71445312 4.85820313 -1.53515625 3.72265625 C-1 1 -1 1 0 0 Z " fill="#F3E53F" transform="translate(747,573)"/>
<path d="M0 0 C3.59634744 3.49359465 6.83451967 7.11098131 10 11 C7 11 7 11 5.17578125 9.35546875 C4.56089844 8.64003906 3.94601562 7.92460938 3.3125 7.1875 C2.37857422 6.12595703 2.37857422 6.12595703 1.42578125 5.04296875 C0 3 0 3 0 0 Z " fill="#F0E13F" transform="translate(419,513)"/>
<path d="M0 0 C1.13732426 3.40401948 0.83989957 5.77456664 0.0625 9.25 C-0.13214844 10.14203125 -0.32679688 11.0340625 -0.52734375 11.953125 C-0.68332031 12.62859375 -0.83929687 13.3040625 -1 14 C-1.33 14 -1.66 14 -2 14 C-2.76173392 9.6835078 -3.16063604 6.25566547 -2 2 C-1.34 2 -0.68 2 0 2 C0 1.34 0 0.68 0 0 Z " fill="#383736" transform="translate(676,341)"/>
<path d="M0 0 C2.31 0.33 4.62 0.66 7 1 C7 1.33 7 1.66 7 2 C5.25215171 2.36463732 3.50159498 2.7163078 1.75 3.0625 C0.28820312 3.35833984 0.28820312 3.35833984 -1.203125 3.66015625 C-3.868119 3.98397535 -5.48871723 3.85503199 -8 3 C-7.34 3 -6.68 3 -6 3 C-5.67 2.34 -5.34 1.68 -5 1 C-3.35 1.33 -1.7 1.66 0 2 C0 1.34 0 0.68 0 0 Z " fill="#464644" transform="translate(621,706)"/>
<path d="M0 0 C3.82097239 0.53069061 6.06171403 1.49701566 9 4 C8.67 4.99 8.34 5.98 8 7 C5.5 5.625 5.5 5.625 3 4 C3 3.34 3 2.68 3 2 C2.01 1.67 1.02 1.34 0 1 C0 0.67 0 0.34 0 0 Z " fill="#2D2D2A" transform="translate(293,452)"/>
<path d="M0 0 C1.65 0.33 3.3 0.66 5 1 C5.80967438 3.91482778 6.21845993 5.46113217 5.0625 8.3125 C4.5365625 9.1478125 4.5365625 9.1478125 4 10 C3.67 7.69 3.34 5.38 3 3 C1.68 2.67 0.36 2.34 -1 2 C-0.67 1.34 -0.34 0.68 0 0 Z " fill="#363533" transform="translate(586,330)"/>
<path d="M0 0 C5.75 0.75 5.75 0.75 8 3 C7.34 3 6.68 3 6 3 C5.67 3.66 5.34 4.32 5 5 C3.02 4.34 1.04 3.68 -1 3 C-0.67 2.01 -0.34 1.02 0 0 Z " fill="#333330" transform="translate(371,292)"/>
<path d="M0 0 C2.2477975 2.05233685 3.0022242 3.00667261 4 6 C3.34 6.66 2.68 7.32 2 8 C1.67 7.34 1.34 6.68 1 6 C-1.01669827 4.86649466 -1.01669827 4.86649466 -3 4 C-2.01 2.68 -1.02 1.36 0 0 Z " fill="#2F2E2D" transform="translate(254,403)"/>
<path d="M0 0 C3.96 0.33 7.92 0.66 12 1 C12 1.33 12 1.66 12 2 C7.05 2.33 2.1 2.66 -3 3 C-2.01 2.67 -1.02 2.34 0 2 C0 1.34 0 0.68 0 0 Z " fill="#51504D" transform="translate(435,716)"/>
<path d="M0 0 C0.66 1.32 1.32 2.64 2 4 C0.33333333 5.66666667 -1.33333333 7.33333333 -3 9 C-3.36923077 3.46153846 -3.36923077 3.46153846 -1.5 1.125 C-1.005 0.75375 -0.51 0.3825 0 0 Z " fill="#3B3A38" transform="translate(774,597)"/>
<path d="M0 0 C0.33 0 0.66 0 1 0 C1.125 2.875 1.125 2.875 1 6 C0.34 6.66 -0.32 7.32 -1 8 C-1.99 8 -2.98 8 -4 8 C-3.34 6.02 -2.68 4.04 -2 2 C-1.34 2 -0.68 2 0 2 C0 1.34 0 0.68 0 0 Z " fill="#2B2B2A" transform="translate(776,589)"/>
<path d="M0 0 C1.98 0.99 3.96 1.98 6 3 C5.67 4.65 5.34 6.3 5 8 C2.27573689 5.64722731 1.1858237 3.37503669 0 0 Z " fill="#302F2E" transform="translate(258,413)"/>
<path d="M0 0 C4.2742558 1.5830577 6.26531794 4.50568404 9 8 C5.56247993 6.4722133 2.81046312 4.49818944 0 2 C0 1.34 0 0.68 0 0 Z " fill="#F5E940" transform="translate(378,634)"/>
<path d="M0 0 C2.72426311 2.35277269 3.8141763 4.62496331 5 8 C4.01 8 3.02 8 2 8 C0.23537317 4.91190305 0 3.76687864 0 0 Z " fill="#201F1E" transform="translate(582,313)"/>
<path d="M0 0 C3.77545388 1.09068668 6.47043472 1.9083091 9 5 C5.95613276 5.08226668 3.92824652 4.97608217 1 4 C0.3125 1.9375 0.3125 1.9375 0 0 Z " fill="#383734" transform="translate(390,300)"/>
<path d="M0 0 C-3.18762365 2.12508244 -5.26512223 2.5020163 -9 3 C-8.67 2.01 -8.34 1.02 -8 0 C-5.04215769 -1.22393475 -3.00272755 -0.96516243 0 0 Z " fill="#343231" transform="translate(658,699)"/>
<path d="M0 0 C3.34373475 0.55728913 6.03312999 1.35173889 9 3 C9 3.33 9 3.66 9 4 C6.36 3.67 3.72 3.34 1 3 C0.67 2.01 0.34 1.02 0 0 Z " fill="#353433" transform="translate(566,237)"/>
<path d="M0 0 C4.455 0.99 4.455 0.99 9 2 C8.67 2.66 8.34 3.32 8 4 C5.69 3.67 3.38 3.34 1 3 C0.67 2.01 0.34 1.02 0 0 Z " fill="#363533" transform="translate(701,375)"/>
<path d="M0 0 C0.33 0 0.66 0 1 0 C1 1.98 1 3.96 1 6 C0.01 6 -0.98 6 -2 6 C-2 3 -2 3 0 0 Z " fill="#2D2D2B" transform="translate(663,301)"/>
<path d="M0 0 C0.33 0 0.66 0 1 0 C1.125 2.875 1.125 2.875 1 6 C0.34 6.66 -0.32 7.32 -1 8 C-1.66 6.68 -2.32 5.36 -3 4 C-2.02727325 2.64664105 -1.0260734 1.31337396 0 0 Z " fill="#2E2D2C" transform="translate(531,248)"/>
<path d="M0 0 C0.66 0.33 1.32 0.66 2 1 C1.67 1.99 1.34 2.98 1 4 C0.01 3.34 -0.98 2.68 -2 2 C-1.34 1.34 -0.68 0.68 0 0 Z " fill="#41403F" transform="translate(742,649)"/>
<path d="M0 0 C1.32 0.66 2.64 1.32 4 2 C2.35 2 0.7 2 -1 2 C-0.67 1.34 -0.34 0.68 0 0 Z " fill="#41403E" transform="translate(497,717)"/>
<path d="M0 0 C1.32 0.33 2.64 0.66 4 1 C2.68 1.33 1.36 1.66 0 2 C0 1.34 0 0.68 0 0 Z " fill="#3F3E3D" transform="translate(529,717)"/>
<path d="M0 0 C0.66 1.32 1.32 2.64 2 4 C1.01 4.495 1.01 4.495 0 5 C0 3.35 0 1.7 0 0 Z " fill="#3E3C3B" transform="translate(576,309)"/>
<path d="M0 0 C1.32 0.33 2.64 0.66 4 1 C2.68 1 1.36 1 0 1 C0 0.67 0 0.34 0 0 Z " fill="#444240" transform="translate(619,710)"/>
<path d="M0 0 C0.99 0.495 0.99 0.495 2 1 C1.67 2.32 1.34 3.64 1 5 C0.67 3.35 0.34 1.7 0 0 Z " fill="#42403E" transform="translate(312,632)"/>
<path d="M0 0 C0.99 0.66 1.98 1.32 3 2 C1.35 2 -0.3 2 -2 2 C-1.34 1.34 -0.68 0.68 0 0 Z " fill="#40403D" transform="translate(553,352)"/>
<path d="M0 0 C0.33 0 0.66 0 1 0 C1 1.98 1 3.96 1 6 C0.67 6 0.34 6 0 6 C0 4.02 0 2.04 0 0 Z " fill="#3D3B3A" transform="translate(591,270)"/>
<path d="M0 0 C0.66 0 1.32 0 2 0 C2 0.66 2 1.32 2 2 C1.01 1.67 0.02 1.34 -1 1 C-0.67 0.67 -0.34 0.34 0 0 Z " fill="#42413F" transform="translate(403,726)"/>
<path d="M0 0 C1.65 0 3.3 0 5 0 C5 0.33 5 0.66 5 1 C3.35 1 1.7 1 0 1 C0 0.67 0 0.34 0 0 Z " fill="#40403D" transform="translate(443,719)"/>
<path d="M0 0 C1.65 0 3.3 0 5 0 C5 0.33 5 0.66 5 1 C3.35 1 1.7 1 0 1 C0 0.67 0 0.34 0 0 Z " fill="#43413F" transform="translate(456,718)"/>
<path d="M0 0 C0 0.99 0 1.98 0 3 C-0.66 2.34 -1.32 1.68 -2 1 C-1.34 0.67 -0.68 0.34 0 0 Z " fill="#43423F" transform="translate(314,637)"/>
<path d="M0 0 C0.33 0 0.66 0 1 0 C1 1.65 1 3.3 1 5 C0.67 5 0.34 5 0 5 C0 3.35 0 1.7 0 0 Z " fill="#44413E" transform="translate(296,569)"/>
<path d="M0 0 C0.33 0.66 0.66 1.32 1 2 C-0.32 1.67 -1.64 1.34 -3 1 C-2.01 0.67 -1.02 0.34 0 0 Z " fill="#3E3C3A" transform="translate(679,363)"/>
<path d="M0 0 C0.99 0.33 1.98 0.66 3 1 C2.67 1.66 2.34 2.32 2 3 C1.34 2.01 0.68 1.02 0 0 Z " fill="#403E3B" transform="translate(641,352)"/>
<path d="M0 0 C1.32 0.33 2.64 0.66 4 1 C3.01 1.495 3.01 1.495 2 2 C1.34 1.34 0.68 0.68 0 0 Z " fill="#403E3B" transform="translate(568,352)"/>
<path d="M0 0 C0.99 0.33 1.98 0.66 3 1 C2.01 1.33 1.02 1.66 0 2 C0 1.34 0 0.68 0 0 Z " fill="#3D3C39" transform="translate(560,352)"/>
<path d="M0 0 C0.66 0 1.32 0 2 0 C1.67 0.99 1.34 1.98 1 3 C0.67 2.01 0.34 1.02 0 0 Z " fill="#3E3C39" transform="translate(584,328)"/>
<path d="M0 0 C0.66 0.99 1.32 1.98 2 3 C1.01 2.67 0.02 2.34 -1 2 C-0.67 1.34 -0.34 0.68 0 0 Z " fill="#43413E" transform="translate(529,285)"/>
<path d="M0 0 C0.99 0.33 1.98 0.66 3 1 C1.68 1.33 0.36 1.66 -1 2 C-0.67 1.34 -0.34 0.68 0 0 Z " fill="#42413F" transform="translate(686,256)"/>
<path d="M0 0 C0.66 0 1.32 0 2 0 C1.67 0.99 1.34 1.98 1 3 C0.67 2.01 0.34 1.02 0 0 Z " fill="#434240" transform="translate(306,696)"/>
<path d="M0 0 C0.66 0.66 1.32 1.32 2 2 C1.01 2.495 1.01 2.495 0 3 C0 2.01 0 1.02 0 0 Z " fill="#44413E" transform="translate(304,609)"/>
<path d="M0 0 C1 4 1 4 1 4 Z " fill="#444340" transform="translate(298,580)"/>
<path d="M0 0 C1 4 1 4 1 4 Z " fill="#43423F" transform="translate(297,575)"/>
<path d="M0 0 C1 4 1 4 1 4 Z " fill="#44413F" transform="translate(248,394)"/>
<path d="M0 0 C1 4 1 4 1 4 Z " fill="#434140" transform="translate(682,256)"/>
<path d="M0 0 C3 1 3 1 3 1 Z " fill="#41403E" transform="translate(545,717)"/>
<path d="M0 0 C3 1 3 1 3 1 Z " fill="#3E3C38" transform="translate(480,717)"/>
<path d="M0 0 C3 1 3 1 3 1 Z " fill="#43413E" transform="translate(649,703)"/>
<path d="M0 0 C0.33 0.66 0.66 1.32 1 2 C0.34 1.67 -0.32 1.34 -1 1 C-0.67 0.67 -0.34 0.34 0 0 Z " fill="#40403C" transform="translate(707,678)"/>
<path d="" fill="#40403E" transform="translate(0,0)"/>
<path d="" fill="#403F3D" transform="translate(0,0)"/>
<path d="M0 0 C0.99 0.495 0.99 0.495 2 1 C1.01 1.495 1.01 1.495 0 2 C0 1.34 0 0.68 0 0 Z " fill="#41403C" transform="translate(641,355)"/>
<path d="M0 0 C3 1 3 1 3 1 Z " fill="#41403D" transform="translate(533,354)"/>
<path d="M0 0 C0.99 0.495 0.99 0.495 2 1 C1.01 1.495 1.01 1.495 0 2 C0 1.34 0 0.68 0 0 Z " fill="#3E3C3A" transform="translate(576,352)"/>
<path d="" fill="#3B3A39" transform="translate(0,0)"/>
<path d="" fill="#413E3B" transform="translate(0,0)"/>
<path d="" fill="#434441" transform="translate(0,0)"/>
<path d="M0 0 C3 1 3 1 3 1 Z " fill="#454440" transform="translate(258,320)"/>
<path d="M0 0 C3 1 3 1 3 1 Z " fill="#3F3D3C" transform="translate(568,303)"/>
<path d="M0 0 C3 1 3 1 3 1 Z " fill="#3F3E3A" transform="translate(331,284)"/>
<path d="M0 0 C0.99 0.495 0.99 0.495 2 1 C1.01 1.495 1.01 1.495 0 2 C0 1.34 0 0.68 0 0 Z " fill="#454341" transform="translate(327,283)"/>
<path d="" fill="#454241" transform="translate(0,0)"/>
<path d="M0 0 C0.33 0.66 0.66 1.32 1 2 C0.34 1.67 -0.32 1.34 -1 1 C-0.67 0.67 -0.34 0.34 0 0 Z " fill="#444240" transform="translate(524,257)"/>
<path d="M0 0 C3 1 3 1 3 1 Z " fill="#43423F" transform="translate(707,256)"/>
<path d="M0 0 C0.33 0.66 0.66 1.32 1 2 C0.34 1.67 -0.32 1.34 -1 1 C-0.67 0.67 -0.34 0.34 0 0 Z " fill="#464543" transform="translate(549,233)"/>
<path d="M0 0 C2 1 2 1 2 1 Z " fill="#444340" transform="translate(316,757)"/>
<path d="M0 0 C2 1 2 1 2 1 Z " fill="#403F3D" transform="translate(318,756)"/>
<path d="M0 0 C2 1 2 1 2 1 Z " fill="#434241" transform="translate(340,751)"/>
<path d="M0 0 C2 1 2 1 2 1 Z " fill="#42423E" transform="translate(355,742)"/>
<path d="M0 0 C2 1 2 1 2 1 Z " fill="#43423F" transform="translate(375,735)"/>
<path d="M0 0 C2 1 2 1 2 1 Z " fill="#42423D" transform="translate(380,733)"/>
<path d="" fill="#41403E" transform="translate(0,0)"/>
<path d="M0 0 C2 1 2 1 2 1 Z " fill="#403F3C" transform="translate(412,724)"/>
<path d="" fill="#444442" transform="translate(0,0)"/>
<path d="M0 0 C2 1 2 1 2 1 Z " fill="#454341" transform="translate(507,718)"/>
<path d="M0 0 C2 1 2 1 2 1 Z " fill="#434340" transform="translate(504,718)"/>
<path d="M0 0 C2 1 2 1 2 1 Z " fill="#454341" transform="translate(491,718)"/>
<path d="M0 0 C2 1 2 1 2 1 Z " fill="#413F3C" transform="translate(451,718)"/>
<path d="M0 0 C2 1 2 1 2 1 Z " fill="#413F3D" transform="translate(540,717)"/>
<path d="M0 0 C2 1 2 1 2 1 Z " fill="#3E3E3B" transform="translate(537,717)"/>
<path d="M0 0 C2 1 2 1 2 1 Z " fill="#444241" transform="translate(573,716)"/>
<path d="M0 0 C2 1 2 1 2 1 Z " fill="#42413D" transform="translate(569,716)"/>
<path d="M0 0 C2 1 2 1 2 1 Z " fill="#43423F" transform="translate(625,709)"/>
<path d="M0 0 C2 1 2 1 2 1 Z " fill="#42413F" transform="translate(638,706)"/>
<path d="M0 0 C2 1 2 1 2 1 Z " fill="#444241" transform="translate(662,699)"/>
<path d="" fill="#403E3C" transform="translate(0,0)"/>
<path d="" fill="#454341" transform="translate(0,0)"/>
<path d="" fill="#403F3C" transform="translate(0,0)"/>
<path d="" fill="#43403E" transform="translate(0,0)"/>
<path d="" fill="#403E3C" transform="translate(0,0)"/>
<path d="" fill="#414140" transform="translate(0,0)"/>
<path d="" fill="#403F3C" transform="translate(0,0)"/>
<path d="" fill="#403F3C" transform="translate(0,0)"/>
<path d="M0 0 C2 1 2 1 2 1 Z " fill="#44433F" transform="translate(293,455)"/>
<path d="M0 0 C2 1 2 1 2 1 Z " fill="#43423F" transform="translate(265,429)"/>
<path d="" fill="#41413E" transform="translate(0,0)"/>
<path d="M0 0 C2 1 2 1 2 1 Z " fill="#454441" transform="translate(261,423)"/>
<path d="M0 0 C2 1 2 1 2 1 Z " fill="#413E3B" transform="translate(692,369)"/>
<path d="" fill="#42423B" transform="translate(0,0)"/>
<path d="M0 0 C2 1 2 1 2 1 Z " fill="#3F3D3B" transform="translate(677,360)"/>
<path d="M0 0 C2 1 2 1 2 1 Z " fill="#3F3D3A" transform="translate(488,360)"/>
<path d="M0 0 C2 1 2 1 2 1 Z " fill="#3E3D38" transform="translate(581,352)"/>
<path d="" fill="#474542" transform="translate(0,0)"/>
<path d="" fill="#423F3D" transform="translate(0,0)"/>
<path d="M0 0 C2 1 2 1 2 1 Z " fill="#3D3C3A" transform="translate(576,317)"/>
<path d="M0 0 C2 1 2 1 2 1 Z " fill="#444340" transform="translate(404,306)"/>
<path d="" fill="#3F3E3C" transform="translate(0,0)"/>
<path d="M0 0 C2 1 2 1 2 1 Z " fill="#44423F" transform="translate(386,296)"/>
<path d="" fill="#40403D" transform="translate(0,0)"/>
<path d="M0 0 C2 1 2 1 2 1 Z " fill="#474441" transform="translate(369,289)"/>
<path d="M0 0 C2 1 2 1 2 1 Z " fill="#454240" transform="translate(365,288)"/>
<path d="M0 0 C2 1 2 1 2 1 Z " fill="#484544" transform="translate(545,235)"/>
<path d="M0 0 C2 1 2 1 2 1 Z " fill="#444240" transform="translate(561,234)"/>
<path d="" fill="#555555" transform="translate(0,0)"/>
<path d="" fill="#444540" transform="translate(0,0)"/>
<path d="" fill="#3F3D3C" transform="translate(0,0)"/>
<path d="" fill="#424141" transform="translate(0,0)"/>
<path d="" fill="#444341" transform="translate(0,0)"/>
<path d="" fill="#464441" transform="translate(0,0)"/>
<path d="" fill="#414140" transform="translate(0,0)"/>
<path d="" fill="#474644" transform="translate(0,0)"/>
<path d="" fill="#3F3D3A" transform="translate(0,0)"/>
<path d="" fill="#444442" transform="translate(0,0)"/>
<path d="" fill="#454441" transform="translate(0,0)"/>
<path d="" fill="#41403F" transform="translate(0,0)"/>
<path d="" fill="#41403E" transform="translate(0,0)"/>
<path d="" fill="#3B3636" transform="translate(0,0)"/>
<path d="" fill="#433F40" transform="translate(0,0)"/>
<path d="" fill="#443F3E" transform="translate(0,0)"/>
<path d="" fill="#40403F" transform="translate(0,0)"/>
<path d="" fill="#464542" transform="translate(0,0)"/>
<path d="" fill="#434241" transform="translate(0,0)"/>
<path d="" fill="#413E3C" transform="translate(0,0)"/>
<path d="" fill="#3F3B37" transform="translate(0,0)"/>
<path d="" fill="#424240" transform="translate(0,0)"/>
<path d="" fill="#434240" transform="translate(0,0)"/>
<path d="" fill="#43413E" transform="translate(0,0)"/>
<path d="" fill="#434140" transform="translate(0,0)"/>
<path d="" fill="#434240" transform="translate(0,0)"/>
<path d="" fill="#444441" transform="translate(0,0)"/>
<path d="" fill="#444341" transform="translate(0,0)"/>
<path d="" fill="#43423F" transform="translate(0,0)"/>
<path d="" fill="#444441" transform="translate(0,0)"/>
<path d="" fill="#454441" transform="translate(0,0)"/>
<path d="" fill="#454341" transform="translate(0,0)"/>
<path d="" fill="#454541" transform="translate(0,0)"/>
<path d="" fill="#444441" transform="translate(0,0)"/>
<path d="" fill="#464642" transform="translate(0,0)"/>
<path d="" fill="#43413E" transform="translate(0,0)"/>
<path d="" fill="#43433E" transform="translate(0,0)"/>
<path d="" fill="#444240" transform="translate(0,0)"/>
<path d="" fill="#3A3836" transform="translate(0,0)"/>
<path d="" fill="#3A3836" transform="translate(0,0)"/>
<path d="" fill="#434441" transform="translate(0,0)"/>
<path d="" fill="#42413D" transform="translate(0,0)"/>
<path d="" fill="#45433F" transform="translate(0,0)"/>
<path d="" fill="#444340" transform="translate(0,0)"/>
<path d="" fill="#464342" transform="translate(0,0)"/>
<path d="" fill="#42403C" transform="translate(0,0)"/>
<path d="" fill="#46423F" transform="translate(0,0)"/>
<path d="" fill="#454541" transform="translate(0,0)"/>
<path d="" fill="#434340" transform="translate(0,0)"/>
<path d="" fill="#434241" transform="translate(0,0)"/>
<path d="" fill="#44433F" transform="translate(0,0)"/>
<path d="" fill="#424441" transform="translate(0,0)"/>
<path d="" fill="#444340" transform="translate(0,0)"/>
<path d="" fill="#434242" transform="translate(0,0)"/>
<path d="" fill="#403E3C" transform="translate(0,0)"/>
<path d="" fill="#444243" transform="translate(0,0)"/>
<path d="" fill="#464440" transform="translate(0,0)"/>
<path d="" fill="#41413F" transform="translate(0,0)"/>
<path d="" fill="#454340" transform="translate(0,0)"/>
<path d="" fill="#45443F" transform="translate(0,0)"/>
<path d="" fill="#433F3E" transform="translate(0,0)"/>
<path d="" fill="#454442" transform="translate(0,0)"/>
<path d="" fill="#413D3C" transform="translate(0,0)"/>
<path d="" fill="#444140" transform="translate(0,0)"/>
<path d="" fill="#44413E" transform="translate(0,0)"/>
<path d="" fill="#45433F" transform="translate(0,0)"/>
<path d="" fill="#43423F" transform="translate(0,0)"/>
<path d="" fill="#3D3A39" transform="translate(0,0)"/>
<path d="" fill="#42423F" transform="translate(0,0)"/>
<path d="" fill="#454341" transform="translate(0,0)"/>
<path d="" fill="#444340" transform="translate(0,0)"/>
<path d="" fill="#444342" transform="translate(0,0)"/>
<path d="" fill="#404040" transform="translate(0,0)"/>
<path d="" fill="#424241" transform="translate(0,0)"/>
<path d="" fill="#434340" transform="translate(0,0)"/>
<path d="" fill="#3F3F3C" transform="translate(0,0)"/>
<path d="" fill="#3F3F3B" transform="translate(0,0)"/>
<path d="" fill="#3E3D3C" transform="translate(0,0)"/>
<path d="" fill="#3E3D3C" transform="translate(0,0)"/>
<path d="" fill="#413F3C" transform="translate(0,0)"/>
<path d="" fill="#3A3837" transform="translate(0,0)"/>
<path d="" fill="#3A3B3B" transform="translate(0,0)"/>
<path d="" fill="#3F3D3B" transform="translate(0,0)"/>
<path d="" fill="#44413E" transform="translate(0,0)"/>
<path d="" fill="#444240" transform="translate(0,0)"/>
<path d="" fill="#434040" transform="translate(0,0)"/>
<path d="" fill="#3F3C3B" transform="translate(0,0)"/>
<path d="" fill="#464343" transform="translate(0,0)"/>
<path d="" fill="#444240" transform="translate(0,0)"/>
<path d="" fill="#464442" transform="translate(0,0)"/>
<path d="" fill="#474543" transform="translate(0,0)"/>
<path d="" fill="#454242" transform="translate(0,0)"/>
<path d="" fill="#413F3F" transform="translate(0,0)"/>
<path d="" fill="#464443" transform="translate(0,0)"/>
<path d="" fill="#434341" transform="translate(0,0)"/>
<path d="" fill="#42413E" transform="translate(0,0)"/>
<path d="" fill="#444340" transform="translate(0,0)"/>
<path d="" fill="#424340" transform="translate(0,0)"/>
<path d="" fill="#42413F" transform="translate(0,0)"/>
<path d="" fill="#444342" transform="translate(0,0)"/>
<path d="" fill="#464441" transform="translate(0,0)"/>
<path d="" fill="#42413F" transform="translate(0,0)"/>
<path d="" fill="#44413F" transform="translate(0,0)"/>
<path d="" fill="#42403C" transform="translate(0,0)"/>
<path d="" fill="#413D3D" transform="translate(0,0)"/>
<path d="" fill="#444140" transform="translate(0,0)"/>
<path d="" fill="#44413E" transform="translate(0,0)"/>
<path d="" fill="#413F3C" transform="translate(0,0)"/>
<path d="" fill="#464643" transform="translate(0,0)"/>
<path d="" fill="#44413F" transform="translate(0,0)"/>
<path d="" fill="#3C3C3C" transform="translate(0,0)"/>
<path d="" fill="#3C3B3A" transform="translate(0,0)"/>
<path d="" fill="#42433F" transform="translate(0,0)"/>
<path d="" fill="#424341" transform="translate(0,0)"/>
<path d="" fill="#424442" transform="translate(0,0)"/>
<path d="" fill="#424441" transform="translate(0,0)"/>
<path d="" fill="#40413B" transform="translate(0,0)"/>
<path d="" fill="#444442" transform="translate(0,0)"/>
<path d="" fill="#444140" transform="translate(0,0)"/>
<path d="" fill="#44413E" transform="translate(0,0)"/>
<path d="" fill="#42403F" transform="translate(0,0)"/>
<path d="" fill="#41403D" transform="translate(0,0)"/>
<path d="" fill="#42423E" transform="translate(0,0)"/>
<path d="" fill="#454240" transform="translate(0,0)"/>
<path d="" fill="#42423F" transform="translate(0,0)"/>
<path d="" fill="#3F3F3D" transform="translate(0,0)"/>
<path d="" fill="#413E3C" transform="translate(0,0)"/>
<path d="" fill="#403C3A" transform="translate(0,0)"/>
<path d="" fill="#474444" transform="translate(0,0)"/>
<path d="" fill="#3F3C3B" transform="translate(0,0)"/>
<path d="" fill="#545455" transform="translate(0,0)"/>
<path d="" fill="#464644" transform="translate(0,0)"/>
<path d="" fill="#423E3B" transform="translate(0,0)"/>
<path d="" fill="#464543" transform="translate(0,0)"/>
<path d="" fill="#42403B" transform="translate(0,0)"/>
<path d="" fill="#464444" transform="translate(0,0)"/>
<path d="" fill="#41403E" transform="translate(0,0)"/>
<path d="" fill="#41403D" transform="translate(0,0)"/>
<path d="" fill="#43423E" transform="translate(0,0)"/>
<path d="" fill="#46423F" transform="translate(0,0)"/>
<path d="" fill="#403E3D" transform="translate(0,0)"/>
<path d="" fill="#444340" transform="translate(0,0)"/>
<path d="" fill="#43433F" transform="translate(0,0)"/>
<path d="" fill="#43443E" transform="translate(0,0)"/>
<path d="" fill="#3F3B3C" transform="translate(0,0)"/>
<path d="" fill="#3C3B39" transform="translate(0,0)"/>
<path d="" fill="#403D3B" transform="translate(0,0)"/>
<path d="" fill="#3F3D3A" transform="translate(0,0)"/>
<path d="" fill="#42423E" transform="translate(0,0)"/>
<path d="" fill="#3F3C39" transform="translate(0,0)"/>
<path d="" fill="#3B3937" transform="translate(0,0)"/>
<path d="" fill="#3A3937" transform="translate(0,0)"/>
<path d="" fill="#41413D" transform="translate(0,0)"/>
<path d="" fill="#3D3B39" transform="translate(0,0)"/>
<path d="" fill="#42413D" transform="translate(0,0)"/>
<path d="" fill="#58585A" transform="translate(0,0)"/>
<path d="" fill="#423F3C" transform="translate(0,0)"/>
<path d="" fill="#3F3E3C" transform="translate(0,0)"/>
<path d="" fill="#3C3A3B" transform="translate(0,0)"/>
<path d="" fill="#3E3A39" transform="translate(0,0)"/>
<path d="" fill="#43403E" transform="translate(0,0)"/>
<path d="" fill="#3C3D39" transform="translate(0,0)"/>
<path d="" fill="#44423E" transform="translate(0,0)"/>
<path d="" fill="#3B3A3A" transform="translate(0,0)"/>
<path d="" fill="#444341" transform="translate(0,0)"/>
<path d="" fill="#474642" transform="translate(0,0)"/>
<path d="" fill="#454441" transform="translate(0,0)"/>
<path d="" fill="#41403C" transform="translate(0,0)"/>
<path d="" fill="#43403E" transform="translate(0,0)"/>
<path d="" fill="#3E3B3A" transform="translate(0,0)"/>
<path d="" fill="#403E3D" transform="translate(0,0)"/>
<path d="" fill="#403F3B" transform="translate(0,0)"/>
<path d="" fill="#434240" transform="translate(0,0)"/>
<path d="" fill="#3F3D3B" transform="translate(0,0)"/>
<path d="" fill="#3D3C3A" transform="translate(0,0)"/>
<path d="" fill="#3C3A39" transform="translate(0,0)"/>
<path d="" fill="#3D3B3B" transform="translate(0,0)"/>
<path d="" fill="#3C3A3A" transform="translate(0,0)"/>
<path d="" fill="#3D3C39" transform="translate(0,0)"/>
<path d="" fill="#41413B" transform="translate(0,0)"/>
<path d="" fill="#3F3E3B" transform="translate(0,0)"/>
<path d="" fill="#43413D" transform="translate(0,0)"/>
<path d="" fill="#45413D" transform="translate(0,0)"/>
<path d="" fill="#43413D" transform="translate(0,0)"/>
<path d="" fill="#443D3D" transform="translate(0,0)"/>
<path d="" fill="#424240" transform="translate(0,0)"/>
<path d="" fill="#42413E" transform="translate(0,0)"/>
<path d="" fill="#3D3A39" transform="translate(0,0)"/>
<path d="" fill="#3B3A36" transform="translate(0,0)"/>
<path d="" fill="#3E403C" transform="translate(0,0)"/>
<path d="" fill="#423E3E" transform="translate(0,0)"/>
<path d="" fill="#413F3D" transform="translate(0,0)"/>
<path d="" fill="#3C3938" transform="translate(0,0)"/>
<path d="" fill="#474541" transform="translate(0,0)"/>
<path d="" fill="#474543" transform="translate(0,0)"/>
<path d="" fill="#403D3B" transform="translate(0,0)"/>
<path d="" fill="#474643" transform="translate(0,0)"/>
<path d="" fill="#46413F" transform="translate(0,0)"/>
<path d="" fill="#3E3D38" transform="translate(0,0)"/>
<path d="" fill="#413F3C" transform="translate(0,0)"/>
<path d="" fill="#3E3C3A" transform="translate(0,0)"/>
<path d="" fill="#474542" transform="translate(0,0)"/>
<path d="" fill="#464542" transform="translate(0,0)"/>
<path d="" fill="#484642" transform="translate(0,0)"/>
<path d="" fill="#413E3B" transform="translate(0,0)"/>
<path d="" fill="#464542" transform="translate(0,0)"/>
<path d="" fill="#3F3A39" transform="translate(0,0)"/>
<path d="" fill="#444140" transform="translate(0,0)"/>
<path d="" fill="#444441" transform="translate(0,0)"/>
<path d="" fill="#40403B" transform="translate(0,0)"/>
<path d="" fill="#3E3E3B" transform="translate(0,0)"/>
<path d="" fill="#423F3E" transform="translate(0,0)"/>
<path d="" fill="#41413E" transform="translate(0,0)"/>
<path d="" fill="#413E3F" transform="translate(0,0)"/>
<path d="" fill="#43443F" transform="translate(0,0)"/>
<path d="" fill="#444340" transform="translate(0,0)"/>
<path d="" fill="#464441" transform="translate(0,0)"/>
<path d="" fill="#454342" transform="translate(0,0)"/>
<path d="" fill="#403E3C" transform="translate(0,0)"/>
<path d="" fill="#424140" transform="translate(0,0)"/>
<path d="" fill="#40403D" transform="translate(0,0)"/>
<path d="" fill="#41403F" transform="translate(0,0)"/>
<path d="" fill="#42413C" transform="translate(0,0)"/>
<path d="" fill="#464442" transform="translate(0,0)"/>
<path d="" fill="#43413F" transform="translate(0,0)"/>
<path d="" fill="#464340" transform="translate(0,0)"/>
<path d="" fill="#403F3E" transform="translate(0,0)"/>
<path d="" fill="#3F3E3C" transform="translate(0,0)"/>
<path d="" fill="#474642" transform="translate(0,0)"/>
<path d="" fill="#464440" transform="translate(0,0)"/>
<path d="" fill="#464541" transform="translate(0,0)"/>
<path d="" fill="#484644" transform="translate(0,0)"/>
<path d="" fill="#454340" transform="translate(0,0)"/>
<path d="" fill="#474442" transform="translate(0,0)"/>
<path d="" fill="#454342" transform="translate(0,0)"/>
<path d="" fill="#454242" transform="translate(0,0)"/>
<path d="" fill="#464543" transform="translate(0,0)"/>
<path d="" fill="#434140" transform="translate(0,0)"/>
<path d="" fill="#42403D" transform="translate(0,0)"/>
<path d="" fill="#474442" transform="translate(0,0)"/>
<path d="" fill="#454340" transform="translate(0,0)"/>
<path d="" fill="#403E3D" transform="translate(0,0)"/>
<path d="" fill="#454440" transform="translate(0,0)"/>
<path d="" fill="#444040" transform="translate(0,0)"/>
<path d="" fill="#424040" transform="translate(0,0)"/>
<path d="" fill="#444441" transform="translate(0,0)"/>
<path d="" fill="#454442" transform="translate(0,0)"/>
<path d="" fill="#454542" transform="translate(0,0)"/>
<path d="" fill="#474844" transform="translate(0,0)"/>
<path d="" fill="#484540" transform="translate(0,0)"/>
<path d="" fill="#59595A" transform="translate(0,0)"/>
</svg>
